<?xml version="1.0" encoding="iso-8859-1"?>
<!-- Generator: Adobe Illustrator 21.1.0, SVG Export Plug-In . SVG Version: 6.00 Build 0)  -->
<svg xmlns="http://www.w3.org/2000/svg" xmlns:xlink="http://www.w3.org/1999/xlink" version="1.1" id="Layer_1" x="0px" y="0px" viewBox="0 0 64 64" style="enable-background:new 0 0 64 64;" xml:space="preserve">
<g>
	<path style="fill:#85CBF8;" d="M31.26,49.27c0.15,2.9-2.14,5.49-5.03,5.64c0,0-0.15,0-0.3,0c-1.64,0-3.17-0.76-4.17-2   c-0.67-0.82-1.1-1.87-1.16-3.03c-0.19-2.94-0.76-5.56-1.57-7.88C15.38,31.44,6.89,27.01,6.89,26.89c-2.59-1.37-3.65-4.57-2.28-7.16   c1.37-2.59,4.56-3.66,7.15-2.28c0.37,0.22,4.69,2.5,9.17,7.36c3.73,4.03,7.57,9.84,9.37,17.72C30.78,44.63,31.11,46.87,31.26,49.27   z"/>
	<path style="fill:#7BBEEB;" d="M30.3,42.53c-0.87,2.62-2.11,5.28-3.8,7.94c-1.07,1.52-2.75,2.44-4.57,2.44h-0.17   c-0.67-0.82-1.1-1.87-1.16-3.03c-0.19-2.94-0.76-5.56-1.57-7.88c3.02-6.16,2.91-12.33,1.9-17.19C24.66,28.84,28.5,34.65,30.3,42.53   z"/>
	<path style="fill:#ED7899;" d="M25.927,54.908c-0.914,0-1.98-0.305-2.894-0.914c-2.437-1.523-3.198-4.873-1.523-7.31   c8.985-13.858,0.305-28.783-0.152-29.392c-1.523-2.589-0.761-5.787,1.827-7.31s5.787-0.761,7.31,1.827   c0.457,0.914,12.488,21.016,0,40.661C29.429,53.995,27.754,54.908,25.927,54.908z"/>
	<path style="fill:#F9E3AE;" d="M52.43,55.67c0.15,3.05-2.14,5.33-5.18,5.33c-1.72,0-3.2-0.78-4.16-2   c-0.74-0.94-1.17-2.15-1.17-3.48c0.06-3.38-0.25-6.52-0.84-9.42c-3.6-17.7-17.4-26.75-18.05-27.13c-2.43-1.52-3.19-4.88-1.67-7.31   c1.52-2.44,4.87-3.2,7.31-1.68c0.6,0.35,8.39,5.36,14.89,15.14c3.85,5.8,7.25,13.27,8.44,22.43   C52.33,50.12,52.49,52.83,52.43,55.67z"/>
	<path style="fill:#F6D397;" d="M52,47.55c-1,2.89-2.32,5.8-4.03,8.71C46.9,58.09,45.07,59,43.25,59h-0.16   c-0.74-0.94-1.17-2.15-1.17-3.48c0.06-3.38-0.25-6.52-0.84-9.42c3.05-7.44,3.29-14.8,2.48-20.98C47.41,30.92,50.81,38.39,52,47.55z   "/>
	<path style="fill:#F9DD8F;" d="M52.43,55.67c0.15,3.05-2.14,5.33-5.18,5.33c-1.72,0-3.2-0.78-4.16-2h0.16   c1.82,0,3.65-0.91,4.72-2.74c1.71-2.91,3.03-5.82,4.03-8.71C52.33,50.12,52.49,52.83,52.43,55.67z"/>
	<path style="fill:#72CAAF;" d="M47.247,61c-0.914,0-1.827-0.305-2.741-0.761c-2.589-1.523-3.35-4.721-1.827-7.31   c11.879-20.255,0-41.727,0-41.88c-1.371-2.589-0.609-5.787,1.98-7.31c2.589-1.523,5.787-0.609,7.31,1.98   c0.609,1.066,14.924,27.108,0,52.54C50.902,60.086,49.075,61,47.247,61z"/>
	<g>
		<path style="fill:#8D6C9F;" d="M52.83,5.21c-1.82-3.1-5.64-4.13-8.68-2.33c-2.95,1.73-3.99,5.51-2.37,8.6    c0.03,0.07,0.06,0.14,0.1,0.23c1.34,2.7,4.03,8.97,4.84,16.8c-6.09-11-14.49-17.31-16.87-18.95c-0.01,0-0.01,0-0.01-0.01    C29.15,9,28.35,8.6,27.48,8.38c-0.1-0.02-0.19-0.04-0.29-0.06c-0.14-0.03-0.28-0.05-0.42-0.07c-0.07-0.01-0.14-0.02-0.21-0.02    c-0.69-0.07-1.4-0.03-2.11,0.13c-1.66,0.38-3.06,1.36-3.94,2.77c-0.71,1.12-1.02,2.43-0.92,3.76c0.02,0.21,0.04,0.41,0.08,0.62    c0.02,0.13,0.04,0.25,0.07,0.37c0.05,0.21,0.1,0.41,0.17,0.61c0.12,0.39,0.29,0.76,0.5,1.13c0.02,0.06,0.05,0.12,0.09,0.18    c0.01,0.02,0.04,0.06,0.05,0.08c0.05,0.07,2.18,3.62,3.31,8.8c-4.36-5.58-9.24-8.76-11.48-10.03l-0.15-0.09    c-1.49-0.79-3.19-0.93-4.81-0.41c-1.6,0.52-2.91,1.62-3.7,3.11c-0.78,1.49-0.93,3.2-0.41,4.81c0.51,1.57,1.59,2.87,3.04,3.66    c0.09,0.07,0.19,0.14,0.29,0.2c4.49,2.87,12.14,9.55,12.96,22.01c0.134,2.562,1.807,4.667,4.095,5.52    c0.441,0.174,0.898,0.303,1.355,0.38c0.14,0.02,0.29,0.04,0.43,0.05c0.15,0.01,0.3,0.02,0.45,0.02h0.35c0.02,0,0.03,0,0.05-0.01    c0.27-0.01,0.53-0.04,0.78-0.1c0.28-0.05,0.56-0.12,0.82-0.21c0.09-0.03,0.17-0.06,0.25-0.09c0.02-0.01,0.04-0.01,0.06-0.02    c0.14-0.06,0.28-0.12,0.41-0.18c1.05-0.49,1.97-1.27,2.69-2.29c3.47-5.45,5.11-10.95,5.62-16.1c2.37,4.99,4.05,11.08,3.96,18.27    c-0.06,0.68-0.01,1.37,0.16,2.04c0.27,1.11,0.84,2.11,1.67,2.9c0.11,0.12,0.23,0.23,0.36,0.34c0.12,0.11,0.26,0.21,0.4,0.31    c0.17,0.13,0.36,0.25,0.55,0.36c0.73,0.44,1.56,0.72,2.44,0.82c0.09,0.01,0.18,0.02,0.26,0.03c0.16,0.01,0.33,0.02,0.49,0.02    c0.19,0,0.38-0.01,0.56-0.03c0.1,0,0.2-0.01,0.29-0.03c0.14-0.01,0.28-0.04,0.42-0.06c0.14-0.03,0.27-0.06,0.41-0.1    c0.13-0.04,0.26-0.08,0.4-0.12c0.8-0.25,1.53-0.67,2.15-1.25c0.11-0.08,0.22-0.19,0.33-0.3c0.09-0.09,0.17-0.18,0.24-0.28    c0.05-0.05,0.1-0.1,0.13-0.15c0.24-0.28,0.46-0.59,0.65-0.92C68.15,32.66,53.47,6.33,52.83,5.21z M7.72,26.24    c-0.07-0.04-0.13-0.08-0.17-0.11C7.49,26.08,7.43,26.04,7.36,26c-1.03-0.54-1.79-1.44-2.15-2.54c-0.35-1.1-0.25-2.26,0.28-3.26    c0.54-1.03,1.45-1.79,2.55-2.15c1.09-0.35,2.25-0.25,3.21,0.25l0.15,0.09c2.51,1.43,8.52,5.38,13.1,12.65    c0.3,4.46-0.42,9.56-3.47,14.54C19.4,37.61,14.69,30.71,7.72,26.24z M32.1,47.43c-0.67,1.49-1.47,2.98-2.42,4.47    c-0.5,0.7-1.13,1.24-1.85,1.57c-0.26,0.14-0.53,0.24-0.81,0.31c-0.18,0.05-0.36,0.09-0.54,0.1c-0.18,0.02-0.36,0.03-0.55,0.03    c-0.11,0-0.22-0.01-0.33-0.02c-0.18-0.01-0.35-0.05-0.52-0.09c-0.52-0.12-1.05-0.34-1.52-0.65c-0.95-0.6-1.62-1.58-1.86-2.7    c-0.23-1.13-0.01-2.26,0.65-3.22c2.75-4.23,3.91-8.53,4.17-12.52c0.09-1.47,0.07-2.9-0.05-4.27c-0.31-3.71-1.27-6.96-2.21-9.37    c1.435,1.121,3.61,3.009,5.917,5.621l-1.3,0.426c-0.524,0.172-0.811,0.737-0.639,1.262c0.138,0.421,0.529,0.689,0.95,0.689    c0.104,0,0.208-0.016,0.312-0.05l1.91-0.626c0.05-0.016,0.086-0.051,0.131-0.075C32.769,29.843,34,31.55,35.15,33.49    C35.1,37.88,34.27,42.63,32.1,47.43z M37.15,32.99c-0.69-1.2-1.42-2.33-2.16-3.39v-0.01c-5.3-7.58-11.32-11.41-11.43-11.47    c-0.95-0.59-1.61-1.55-1.87-2.69c-0.04-0.15-0.07-0.31-0.08-0.46c-0.01-0.08-0.02-0.17-0.02-0.25c-0.03-0.41,0.01-0.83,0.11-1.24    c0.27-1.1,0.98-2.04,1.99-2.64c0.63-0.37,1.31-0.58,2-0.63c0.07-0.01,0.14-0.01,0.21-0.01c0.12,0,0.24,0.01,0.37,0.02    c0.17,0,0.35,0.02,0.51,0.07c0.184,0.035,0.359,0.097,0.534,0.158c0.082,0.027,0.162,0.058,0.242,0.09    c0.214,0.089,0.419,0.195,0.614,0.312c0.01,0,0.05,0.03,0.11,0.07c0.14,0.09,0.3,0.18,0.43,0.29c0.78,0.52,2.33,1.65,4.29,3.38    c4.11,3.62,9.97,9.89,13.96,18.84c-0.03,5.46-1.14,11.4-4.21,17.3C42.13,43.67,39.89,37.76,37.15,32.99z M51.11,57.75    c-0.13,0.22-0.27,0.43-0.44,0.62c-0.59,0.73-1.38,1.24-2.26,1.48c-0.18,0.06-0.37,0.09-0.57,0.11C47.65,59.99,47.45,60,47.25,60    c-0.194,0-0.378-0.027-0.564-0.05c-0.514-0.083-1.073-0.272-1.676-0.57c-0.23-0.13-0.44-0.29-0.63-0.45    c-0.08-0.07-0.15-0.14-0.22-0.21c-0.1-0.1-0.19-0.2-0.28-0.31c-0.61-0.77-0.96-1.77-0.96-2.87v-0.23    c0.06-0.64,0.27-1.28,0.62-1.88c3.07-5.23,4.61-10.53,5.17-15.55c0.19-1.64,0.27-3.25,0.27-4.82c-0.01-10.35-3.65-18.9-5.3-22.24    l-0.07-0.14c-0.02-0.03-0.03-0.07-0.05-0.1c-1.16-2.19-0.47-4.76,1.61-5.98c2.07-1.22,4.68-0.51,5.93,1.61    c0.14,0.25,13.07,23.43,2.32,47.08C52.75,54.78,51.98,56.27,51.11,57.75z"/>
		<path style="fill:#8D6C9F;" d="M31.771,38.096l-1.951-0.455c-0.544-0.129-1.076,0.208-1.201,0.747    c-0.126,0.538,0.209,1.076,0.746,1.201l1.951,0.455c0.077,0.018,0.153,0.026,0.229,0.026c0.454,0,0.865-0.312,0.973-0.773    C32.643,38.759,32.308,38.221,31.771,38.096z"/>
		<path style="fill:#8D6C9F;" d="M30.01,32.312c-0.551,0.024-0.979,0.492-0.954,1.043c0.023,0.537,0.467,0.956,0.998,0.956    c0.016,0,0.03,0,0.045-0.001l1.999-0.089c0.551-0.024,0.979-0.492,0.954-1.043c-0.024-0.553-0.518-0.966-1.043-0.955L30.01,32.312    z"/>
		<path style="fill:#8D6C9F;" d="M25.973,47.62c-0.398-0.382-1.031-0.371-1.414,0.027c-0.383,0.398-0.371,1.031,0.027,1.414    l1.47,1.415c0.194,0.187,0.443,0.279,0.693,0.279c0.263,0,0.524-0.103,0.721-0.307c0.383-0.398,0.371-1.031-0.027-1.414    L25.973,47.62z"/>
		<path style="fill:#8D6C9F;" d="M30.084,43.706l-1.771-0.968c-0.484-0.266-1.093-0.087-1.357,0.398    c-0.265,0.484-0.086,1.092,0.398,1.357l1.771,0.968c0.152,0.083,0.316,0.123,0.479,0.123c0.354,0,0.697-0.188,0.879-0.521    C30.747,44.579,30.568,43.971,30.084,43.706z"/>
	</g>
</g>
</svg>
